<svg width="217" height="50" viewBox="0 0 217 50" fill="none" xmlns="http://www.w3.org/2000/svg">
<path d="M32.4604 29.296C29.658 26.4006 25.628 27.0414 23.388 29.296V26.562C25.2092 24.2673 27.2762 23.7792 30.4454 24.0971C27.2615 22.8988 24.8835 23.5485 21.9012 26.0045L18.0619 23.6031L27.8826 18.1841L37.3513 23.3488V27.0903C37.5665 27.2027 37.6203 27.2761 37.7523 27.4179C37.923 27.6301 38.0017 27.8679 38.0115 28.1564C38.0066 28.5722 37.8469 28.8183 37.6887 28.983C37.4551 29.2273 37.1801 29.3645 36.8133 29.3547C36.4758 29.3449 36.1481 29.1884 35.9134 28.8754C35.7764 28.67 35.6982 28.4988 35.6835 28.1613C35.6982 27.8777 35.7373 27.6918 35.9525 27.4082C36.0356 27.3006 36.1677 27.1783 36.3144 27.1098V24.3416L32.4604 26.386V29.296Z" fill="#EBAD00"/>
<path d="M26.1366 50C32.5527 49.6347 39.0852 47.1962 43.5035 42.5295C47.9218 37.8629 50.3905 31.6846 50.4047 25.2582C50.419 18.8317 47.9776 12.6426 43.58 7.95641C39.1824 3.27023 33.1607 0.441036 26.7463 0.0473658C20.3319 -0.346304 14.0094 1.72529 9.07173 5.83853C4.13405 9.95178 0.954211 15.7959 0.182463 22.1759C-0.589286 28.5558 1.10536 34.9896 4.91986 40.1615C8.33891 44.795 12.2124 46.9783 14.6187 47.4947C20.0475 48.0083 21.8634 45.3385 22.1799 42.1735C19.7029 44.2358 13.5965 42.4621 9.44913 37.361C7.09665 35.0476 4.96274 27.2913 5.48757 22.9526C6.22119 17.201 7.5466 14.5355 11.9581 10.0996C15.8707 6.53905 19.7932 4.99844 25.3932 4.99844C31.9224 5.43373 35.1161 6.73468 39.3907 10.4468C41.2296 12.051 45.201 17.1179 46.1645 23.4075C46.7905 27.1392 45.5825 33.4728 43.9 36.4953C42.5159 39.5031 38.08 43.9244 35.8448 45.4112C32.4666 47.7063 30.2599 48.6123 26.1366 50Z" fill="#40B240"/>
<path d="M27.8141 28.6309C25.4993 28.6309 23.6227 30.479 23.6227 32.7587C23.6227 33.9601 24.1438 35.0416 24.9756 35.7959V36.3437C22.2337 35.7128 20.4875 34.5984 17.9151 32.1033H15.0051V34.2211C18.1992 36.9003 20.659 38.5903 21.6908 40.6623C23.0211 44.2374 19.6171 48.1843 14.2128 47.3969C22.0752 49.675 34.8471 45.108 38.4565 35.2432V32.5288H36.8621C34.8129 34.7444 32.8424 35.7496 30.7417 36.3437V35.7128C31.5215 34.9632 32.0055 33.9166 32.0055 32.7587C32.0055 30.479 30.129 28.6309 27.8141 28.6309Z" fill="#2951BC"/>
<path d="M62.7176 18.3954L65.9241 19.3646C65.7087 20.2638 65.3695 21.015 64.9064 21.618C64.4433 22.2211 63.8672 22.6761 63.1779 22.983C62.4941 23.2899 61.6218 23.4434 60.5611 23.4434C59.2741 23.4434 58.2215 23.2576 57.403 22.8861C56.5899 22.5092 55.8873 21.8496 55.295 20.9073C54.7027 19.965 54.4065 18.7588 54.4065 17.2888C54.4065 15.3289 54.9261 13.8239 55.9653 12.7739C57.0099 11.7185 58.4853 11.1908 60.3914 11.1908C61.883 11.1908 63.0541 11.4924 63.9049 12.0954C64.761 12.6985 65.3964 13.6247 65.811 14.8739L62.5803 15.5927C62.4672 15.2319 62.3487 14.9681 62.2249 14.8012C62.0203 14.5212 61.7699 14.3058 61.4737 14.155C61.1776 14.0043 60.8464 13.9289 60.4803 13.9289C59.6511 13.9289 59.0157 14.2627 58.5741 14.9304C58.2403 15.4258 58.0734 16.2039 58.0734 17.2646C58.0734 18.5784 58.2726 19.4804 58.6711 19.9704C59.0695 20.455 59.6295 20.6973 60.3511 20.6973C61.051 20.6973 61.5787 20.5007 61.9341 20.1077C62.2949 19.7146 62.556 19.1438 62.7176 18.3954ZM74.9944 21.2788H70.8267L70.2533 23.2334H66.5137L70.964 11.3928H74.954L79.4043 23.2334H75.5759L74.9944 21.2788ZM74.2271 18.7184L72.9186 14.462L71.6182 18.7184H74.2271ZM80.632 23.2334V11.3928H86.73C87.8608 11.3928 88.725 11.4897 89.3227 11.6835C89.9204 11.8774 90.4023 12.2381 90.7684 12.7658C91.1346 13.2881 91.3176 13.9262 91.3176 14.68C91.3176 15.3369 91.1776 15.905 90.8977 16.3842C90.6177 16.8581 90.2327 17.2431 89.7427 17.5392C89.4304 17.7277 89.0023 17.8838 88.4584 18.0077C88.8946 18.1531 89.2123 18.2985 89.4115 18.4438C89.5461 18.5408 89.74 18.7481 89.993 19.0658C90.2515 19.3834 90.4238 19.6284 90.51 19.8007L92.2788 23.2334H88.1434L86.1889 19.615C85.9412 19.1465 85.7204 18.8423 85.5266 18.7023C85.2627 18.5192 84.9639 18.4277 84.63 18.4277H84.307V23.2334H80.632ZM84.307 16.1904H85.8496C86.0165 16.1904 86.3396 16.1366 86.8188 16.0289C87.0612 15.9804 87.2577 15.8566 87.4085 15.6573C87.5646 15.4581 87.6427 15.2293 87.6427 14.9708C87.6427 14.5885 87.5215 14.295 87.2792 14.0904C87.0369 13.8858 86.5819 13.7835 85.9142 13.7835H84.307V16.1904ZM93.4499 11.3928H103.255V13.9208H97.1168V15.8027H102.811V18.2177H97.1168V20.5519H103.433V23.2334H93.4499V11.3928ZM105.404 11.3928H115.209V13.9208H109.071V15.8027H114.765V18.2177H109.071V20.5519H115.387V23.2334H105.404V11.3928ZM117.414 23.2334V11.3928H123.512C124.643 11.3928 125.507 11.4897 126.105 11.6835C126.702 11.8774 127.184 12.2381 127.55 12.7658C127.916 13.2881 128.1 13.9262 128.1 14.68C128.1 15.3369 127.96 15.905 127.68 16.3842C127.4 16.8581 127.015 17.2431 126.525 17.5392C126.212 17.7277 125.784 17.8838 125.24 18.0077C125.677 18.1531 125.994 18.2985 126.193 18.4438C126.328 18.5408 126.522 18.7481 126.775 19.0658C127.033 19.3834 127.206 19.6284 127.292 19.8007L129.061 23.2334H124.925L122.971 19.615C122.723 19.1465 122.502 18.8423 122.308 18.7023C122.045 18.5192 121.746 18.4277 121.412 18.4277H121.089V23.2334H117.414ZM121.089 16.1904H122.632C122.798 16.1904 123.122 16.1366 123.601 16.0289C123.843 15.9804 124.04 15.8566 124.19 15.6573C124.347 15.4581 124.425 15.2293 124.425 14.9708C124.425 14.5885 124.303 14.295 124.061 14.0904C123.819 13.8858 123.364 13.7835 122.696 13.7835H121.089V16.1904Z" fill="#2951BC"/>
<path d="M137.045 18.5798V23.4248H135.424V11.4692H143.918V12.7929H137.045V17.2391H143.714V18.5798H137.045ZM150.825 23.5945C149.846 23.5945 148.992 23.4135 148.262 23.0515C147.532 22.6894 146.967 22.1718 146.565 21.4987C146.163 20.8255 145.963 20.0194 145.963 19.0804V11.4692H147.583V18.9446C147.583 20.0364 147.86 20.8651 148.415 21.4308C148.969 21.9965 149.77 22.2793 150.816 22.2793C151.891 22.2793 152.725 21.988 153.319 21.4053C153.919 20.817 154.219 19.96 154.219 18.8343V11.4692H155.831V18.9277C155.831 19.895 155.624 20.7265 155.211 21.4223C154.804 22.1181 154.224 22.6555 153.472 23.0345C152.725 23.4078 151.843 23.5945 150.825 23.5945ZM163.289 12.7929V23.4248H161.677V12.7929H157.57V11.4692H167.396V12.7929H163.289ZM174.006 23.5945C173.027 23.5945 172.173 23.4135 171.444 23.0515C170.714 22.6894 170.148 22.1718 169.746 21.4987C169.345 20.8255 169.144 20.0194 169.144 19.0804V11.4692H170.765V18.9446C170.765 20.0364 171.042 20.8651 171.596 21.4308C172.151 21.9965 172.951 22.2793 173.998 22.2793C175.072 22.2793 175.907 21.988 176.501 21.4053C177.1 20.817 177.4 19.96 177.4 18.8343V11.4692H179.012V18.9277C179.012 19.895 178.806 20.7265 178.393 21.4223C177.986 22.1181 177.406 22.6555 176.653 23.0345C175.907 23.4078 175.024 23.5945 174.006 23.5945ZM183.408 18.461V23.4248H181.787V11.4692H187.413C188.759 11.4692 189.797 11.7719 190.527 12.3771C191.262 12.9768 191.63 13.814 191.63 14.8887C191.63 15.7769 191.369 16.5235 190.849 17.1288C190.334 17.7341 189.622 18.1159 188.711 18.2743L192.105 23.4248H190.238L187.133 18.461H183.408ZM190.001 14.9057C190.001 14.2099 189.763 13.681 189.288 13.319C188.818 12.9513 188.139 12.7675 187.251 12.7675H183.408V17.1797H187.319C188.173 17.1797 188.832 16.9817 189.296 16.5858C189.766 16.1841 190.001 15.6241 190.001 14.9057ZM203.763 22.1011V23.4248H194.345V11.4692H203.416V12.7929H195.966V16.6282H202.906V17.9349H195.966V22.1011H203.763ZM215.303 20.1241C215.303 21.2272 214.87 22.0813 214.005 22.6866C213.145 23.2919 211.932 23.5945 210.365 23.5945C207.452 23.5945 205.763 22.5819 205.299 20.5568L206.869 20.2429C207.05 20.9613 207.435 21.4902 208.023 21.8296C208.611 22.1633 209.412 22.3302 210.424 22.3302C211.471 22.3302 212.277 22.152 212.843 21.7957C213.414 21.4336 213.7 20.9047 213.7 20.2089C213.7 19.8186 213.609 19.5018 213.428 19.2586C213.253 19.0154 213.004 18.8145 212.681 18.6562C212.359 18.4978 211.974 18.3648 211.527 18.2573C211.08 18.1499 210.585 18.0339 210.042 17.9095C209.415 17.768 208.888 17.6294 208.464 17.4937C208.046 17.3579 207.701 17.2165 207.429 17.0694C207.157 16.9167 206.926 16.7555 206.733 16.5858C206.45 16.3256 206.233 16.0229 206.08 15.6779C205.933 15.3328 205.859 14.9368 205.859 14.4899C205.859 13.4661 206.25 12.6769 207.03 12.1226C207.817 11.5682 208.939 11.291 210.399 11.291C211.756 11.291 212.794 11.5003 213.513 11.9189C214.231 12.3319 214.735 13.039 215.023 14.0402L213.428 14.3202C213.253 13.6867 212.919 13.2285 212.427 12.9456C211.935 12.6571 211.253 12.5129 210.382 12.5129C209.426 12.5129 208.696 12.6713 208.193 12.9881C207.689 13.3048 207.438 13.7772 207.438 14.4051C207.438 14.7728 207.534 15.0782 207.726 15.3215C207.924 15.5591 208.207 15.7599 208.575 15.9239C208.92 16.088 209.652 16.2945 210.772 16.5433C211.23 16.6508 211.683 16.764 212.13 16.8828C212.577 16.9959 212.998 17.1401 213.394 17.3155C213.626 17.4117 213.847 17.5305 214.056 17.6719C214.271 17.8076 214.458 17.966 214.616 18.147C214.831 18.3846 214.998 18.6646 215.117 18.9871C215.241 19.3095 215.303 19.6885 215.303 20.1241Z" fill="#2951BC"/>
<path d="M98.8839 34.6405C98.9762 34.6405 99.0537 34.6825 99.1166 34.7663C99.1586 34.8208 99.1795 34.89 99.1795 34.9739C99.1795 35.171 99.125 35.3786 99.016 35.5966C98.9028 35.8273 98.7539 35.9426 98.5694 35.9426C98.3765 35.9426 98.2801 35.8335 98.2801 35.6155C98.2801 35.3974 98.3472 35.1752 98.4813 34.9487C98.603 34.7433 98.7371 34.6405 98.8839 34.6405ZM101.551 34.6405C101.643 34.6405 101.721 34.6825 101.784 34.7663C101.826 34.8208 101.847 34.89 101.847 34.9739C101.847 35.171 101.792 35.3786 101.683 35.5966C101.57 35.8273 101.421 35.9426 101.236 35.9426C101.043 35.9426 100.947 35.8335 100.947 35.6155C100.947 35.3974 101.014 35.1752 101.148 34.9487C101.27 34.7433 101.404 34.6405 101.551 34.6405ZM104.218 34.6405C104.31 34.6405 104.388 34.6825 104.451 34.7663C104.493 34.8208 104.514 34.89 104.514 34.9739C104.514 35.171 104.459 35.3786 104.35 35.5966C104.237 35.8273 104.088 35.9426 103.903 35.9426C103.71 35.9426 103.614 35.8335 103.614 35.6155C103.614 35.3974 103.681 35.1752 103.815 34.9487C103.937 34.7433 104.071 34.6405 104.218 34.6405ZM106.885 34.6405C106.977 34.6405 107.055 34.6825 107.118 34.7663C107.16 34.8208 107.18 34.89 107.18 34.9739C107.18 35.171 107.126 35.3786 107.017 35.5966C106.904 35.8273 106.755 35.9426 106.57 35.9426C106.377 35.9426 106.281 35.8335 106.281 35.6155C106.281 35.3974 106.348 35.1752 106.482 34.9487C106.604 34.7433 106.738 34.6405 106.885 34.6405ZM109.552 34.6405C109.644 34.6405 109.722 34.6825 109.785 34.7663C109.827 34.8208 109.847 34.89 109.847 34.9739C109.847 35.171 109.793 35.3786 109.684 35.5966C109.571 35.8273 109.422 35.9426 109.237 35.9426C109.044 35.9426 108.948 35.8335 108.948 35.6155C108.948 35.3974 109.015 35.1752 109.149 34.9487C109.271 34.7433 109.405 34.6405 109.552 34.6405ZM112.219 34.6405C112.311 34.6405 112.389 34.6825 112.452 34.7663C112.493 34.8208 112.514 34.89 112.514 34.9739C112.514 35.171 112.46 35.3786 112.351 35.5966C112.238 35.8273 112.089 35.9426 111.904 35.9426C111.711 35.9426 111.615 35.8335 111.615 35.6155C111.615 35.3974 111.682 35.1752 111.816 34.9487C111.938 34.7433 112.072 34.6405 112.219 34.6405ZM114.886 34.6405C114.978 34.6405 115.056 34.6825 115.119 34.7663C115.16 34.8208 115.181 34.89 115.181 34.9739C115.181 35.171 115.127 35.3786 115.018 35.5966C114.905 35.8273 114.756 35.9426 114.571 35.9426C114.378 35.9426 114.282 35.8335 114.282 35.6155C114.282 35.3974 114.349 35.1752 114.483 34.9487C114.605 34.7433 114.739 34.6405 114.886 34.6405ZM117.553 34.6405C117.645 34.6405 117.723 34.6825 117.786 34.7663C117.827 34.8208 117.848 34.89 117.848 34.9739C117.848 35.171 117.794 35.3786 117.685 35.5966C117.572 35.8273 117.423 35.9426 117.238 35.9426C117.045 35.9426 116.949 35.8335 116.949 35.6155C116.949 35.3974 117.016 35.1752 117.15 34.9487C117.272 34.7433 117.406 34.6405 117.553 34.6405ZM120.22 34.6405C120.312 34.6405 120.39 34.6825 120.452 34.7663C120.494 34.8208 120.515 34.89 120.515 34.9739C120.515 35.171 120.461 35.3786 120.352 35.5966C120.239 35.8273 120.09 35.9426 119.905 35.9426C119.712 35.9426 119.616 35.8335 119.616 35.6155C119.616 35.3974 119.683 35.1752 119.817 34.9487C119.939 34.7433 120.073 34.6405 120.22 34.6405ZM125.478 34.1436C125.193 34.3407 124.965 34.4875 124.793 34.5839C124.398 34.8104 124.057 34.9236 123.767 34.9236C123.428 34.9236 123.147 34.7579 122.924 34.4267C122.765 34.1877 122.685 33.913 122.685 33.6027C122.685 32.7388 123.063 31.7324 123.818 30.5835C124.518 29.5225 125.329 28.6084 126.252 27.841C127.007 27.212 127.655 26.8975 128.196 26.8975C128.468 26.8975 128.69 27.0128 128.862 27.2434C128.992 27.4196 129.057 27.6271 129.057 27.8662C129.057 28.5958 128.701 29.3527 127.988 30.1369C127.443 30.7365 127.03 31.0363 126.749 31.0363C126.686 31.0363 126.623 31.0112 126.56 30.9609C126.493 30.9021 126.459 30.833 126.459 30.7533C126.459 30.6485 126.552 30.5206 126.736 30.3696C127.21 29.988 127.596 29.598 127.894 29.1996C128.359 28.5832 128.592 28.0947 128.592 27.7341C128.592 27.6376 128.556 27.56 128.485 27.5013C128.418 27.4468 128.336 27.4196 128.24 27.4196C128.017 27.4196 127.72 27.5496 127.346 27.8095C126.566 28.3589 125.797 29.1284 125.038 30.118C124.547 30.7596 124.138 31.4221 123.811 32.1056C123.526 32.7053 123.384 33.1959 123.384 33.5775C123.384 33.7285 123.432 33.8711 123.528 34.0052C123.658 34.1856 123.828 34.2757 124.038 34.2757C124.336 34.2757 124.702 34.1185 125.139 33.804C125.684 33.4098 126.074 33.0932 126.309 32.8542C126.506 32.6529 126.654 32.5522 126.755 32.5522C126.826 32.5522 126.885 32.5795 126.931 32.634C126.99 32.7053 127.019 32.7934 127.019 32.8982C127.019 33.0156 126.948 33.1708 126.805 33.3637C126.659 33.5565 126.432 33.9151 126.126 34.4393C125.774 35.0389 125.449 35.6889 125.151 36.3892C124.887 37.0056 124.728 37.4228 124.673 37.6409C124.627 37.8254 124.575 37.9575 124.516 38.0372C124.453 38.121 124.357 38.163 124.227 38.163C124.117 38.163 124.034 38.1252 123.975 38.0497C123.925 37.9826 123.899 37.903 123.899 37.8107C123.899 37.4543 124.107 36.8379 124.522 35.9614C124.589 35.8231 124.801 35.4205 125.157 34.7538C125.229 34.6196 125.336 34.4162 125.478 34.1436ZM129.196 34.1373C129.015 34.3889 128.856 34.5902 128.718 34.7412C128.474 35.0096 128.233 35.1437 127.994 35.1437C127.789 35.1437 127.629 35.0515 127.516 34.867C127.437 34.737 127.397 34.5818 127.397 34.4015C127.397 33.8606 127.627 33.24 128.089 32.5397C128.302 32.2126 128.514 31.9631 128.724 31.7911C128.887 31.6528 129.022 31.5836 129.126 31.5836C129.185 31.5836 129.24 31.6087 129.29 31.6591C129.332 31.7052 129.353 31.7513 129.353 31.7974C129.353 31.8771 129.275 32.0071 129.12 32.1874C128.772 32.6026 128.508 32.9842 128.328 33.3322C128.118 33.739 128.013 34.0577 128.013 34.2883C128.013 34.347 128.026 34.3931 128.051 34.4267C128.08 34.456 128.12 34.4707 128.17 34.4707C128.384 34.4707 128.682 34.1646 129.064 33.5524C129.261 33.2337 129.43 32.8814 129.573 32.4956C129.649 32.286 129.747 32.0994 129.869 31.9358C129.986 31.789 130.101 31.7157 130.215 31.7157C130.278 31.7157 130.334 31.7429 130.384 31.7974C130.439 31.8561 130.466 31.9211 130.466 31.9924C130.466 32.1434 130.322 32.483 130.032 33.0114C129.835 33.3762 129.737 33.6803 129.737 33.9235C129.737 34.1835 129.806 34.4057 129.944 34.5902C129.982 34.6405 130.097 34.7202 130.29 34.8292C130.382 34.8837 130.429 34.9718 130.429 35.0934C130.429 35.1689 130.395 35.2339 130.328 35.2884C130.265 35.3429 130.187 35.3702 130.095 35.3702C129.885 35.3702 129.695 35.2863 129.523 35.1186C129.368 34.9676 129.269 34.7496 129.227 34.4644C129.219 34.4267 129.208 34.3176 129.196 34.1373ZM132.435 31.332C132.506 31.332 132.565 31.3592 132.611 31.4137C132.645 31.4599 132.661 31.506 132.661 31.5521C132.661 31.6276 132.601 31.7534 132.479 31.9295C132.043 32.6047 131.733 33.1603 131.548 33.5964C131.351 34.0451 131.177 34.5063 131.026 34.9802C130.959 35.1899 130.854 35.2947 130.712 35.2947C130.628 35.2947 130.561 35.2612 130.51 35.1941C130.464 35.1395 130.441 35.0808 130.441 35.0179C130.441 34.8921 130.575 34.4728 130.844 33.7599C131.053 33.198 131.393 32.5774 131.863 31.8981C132.014 31.6758 132.127 31.527 132.202 31.4515C132.278 31.3718 132.355 31.332 132.435 31.332ZM133.63 28.9984C133.819 28.9984 133.913 29.0948 133.913 29.2877C133.913 29.4638 133.821 29.6588 133.636 29.8727C133.46 30.0782 133.29 30.1809 133.127 30.1809C133.047 30.1809 132.982 30.1515 132.932 30.0928C132.882 30.0383 132.856 29.9712 132.856 29.8915C132.856 29.6903 132.968 29.4764 133.19 29.25C133.353 29.0822 133.5 28.9984 133.63 28.9984ZM135.02 31.4263C135.44 30.5499 135.836 29.7867 136.209 29.1367C136.57 28.5077 136.815 28.1115 136.945 27.9479C137.088 27.7676 137.222 27.6775 137.348 27.6775C137.415 27.6775 137.475 27.7047 137.53 27.7592C137.58 27.8137 137.605 27.8724 137.605 27.9353C137.605 28.0318 137.534 28.1932 137.392 28.4197C136.784 29.4009 136.226 30.3968 135.718 31.4074C135.131 32.5858 134.838 33.4685 134.838 34.0556C134.838 34.2946 134.884 34.4833 134.976 34.6217C134.993 34.651 135.068 34.7181 135.203 34.8229C135.228 34.8439 135.24 34.8858 135.24 34.9487C135.24 35.0326 135.207 35.1102 135.14 35.1815C135.077 35.2486 135.006 35.2821 134.926 35.2821C134.829 35.2821 134.723 35.2234 134.605 35.106C134.437 34.9383 134.337 34.7454 134.303 34.5273C134.291 34.4351 134.276 34.2631 134.259 34.0115C133.819 34.8041 133.4 35.2003 133.001 35.2003C132.771 35.2003 132.586 35.0704 132.448 34.8104C132.355 34.6384 132.309 34.4434 132.309 34.2254C132.309 33.5712 132.548 32.9129 133.026 32.2503C133.5 31.5962 134.01 31.2691 134.555 31.2691C134.706 31.2691 134.861 31.3215 135.02 31.4263ZM134.806 31.9421C134.693 31.8666 134.595 31.8289 134.511 31.8289C134.159 31.8289 133.825 32.0448 133.511 32.4768C133.095 33.0387 132.888 33.5817 132.888 34.1059C132.888 34.1688 132.9 34.2275 132.926 34.282C132.976 34.3868 133.051 34.4393 133.152 34.4393C133.299 34.4393 133.477 34.2967 133.687 34.0115C133.968 33.6341 134.228 33.1875 134.467 32.6717C134.551 32.4956 134.632 32.3195 134.712 32.1434C134.712 32.1434 134.731 32.1035 134.769 32.0239L134.806 31.9421ZM137.505 31.332C137.576 31.332 137.635 31.3592 137.681 31.4137C137.714 31.4599 137.731 31.506 137.731 31.5521C137.731 31.6276 137.67 31.7534 137.549 31.9295C137.113 32.6047 136.802 33.1603 136.618 33.5964C136.421 34.0451 136.247 34.5063 136.096 34.9802C136.029 35.1899 135.924 35.2947 135.781 35.2947C135.697 35.2947 135.63 35.2612 135.58 35.1941C135.534 35.1395 135.511 35.0808 135.511 35.0179C135.511 34.8921 135.645 34.4728 135.913 33.7599C136.123 33.198 136.463 32.5774 136.932 31.8981C137.083 31.6758 137.197 31.527 137.272 31.4515C137.348 31.3718 137.425 31.332 137.505 31.332ZM138.7 28.9984C138.889 28.9984 138.983 29.0948 138.983 29.2877C138.983 29.4638 138.891 29.6588 138.706 29.8727C138.53 30.0782 138.36 30.1809 138.197 30.1809C138.117 30.1809 138.052 30.1515 138.002 30.0928C137.951 30.0383 137.926 29.9712 137.926 29.8915C137.926 29.6903 138.037 29.4764 138.26 29.25C138.423 29.0822 138.57 28.9984 138.7 28.9984ZM138.719 32.9422C138.773 32.8919 138.826 32.8416 138.876 32.7913C139.752 31.9358 140.34 31.5081 140.637 31.5081C140.801 31.5081 140.883 31.5982 140.883 31.7786C140.883 31.9044 140.809 32.0532 140.662 32.2252C139.861 33.1603 139.461 33.9843 139.461 34.6971C139.461 34.9278 139.524 35.1479 139.65 35.3576C139.708 35.454 139.738 35.5295 139.738 35.584C139.738 35.6344 139.713 35.6826 139.662 35.7287C139.608 35.7874 139.543 35.8168 139.467 35.8168C139.295 35.8168 139.151 35.7077 139.033 35.4897C138.92 35.2842 138.863 35.0347 138.863 34.7412C138.863 34.1751 139.077 33.5482 139.505 32.8605C138.935 33.2253 138.404 33.8711 137.914 34.7978C137.788 35.02 137.654 35.1312 137.511 35.1312C137.44 35.1312 137.381 35.106 137.335 35.0557C137.276 34.997 137.247 34.9215 137.247 34.8292C137.247 34.6028 137.505 34.0094 138.021 33.0492C138.297 32.5292 138.515 32.1518 138.675 31.9169C138.834 31.6863 138.97 31.571 139.084 31.571C139.138 31.571 139.191 31.5962 139.241 31.6465C139.3 31.7052 139.329 31.7723 139.329 31.8478C139.329 31.94 139.268 32.0721 139.147 32.244C138.97 32.4998 138.828 32.7326 138.719 32.9422ZM142.757 34.5588C143.206 34.2317 143.539 33.934 143.757 33.6656C144.08 33.2756 144.309 32.959 144.443 32.7158C144.51 32.6068 144.579 32.5522 144.65 32.5522C144.751 32.5522 144.801 32.6005 144.801 32.6969C144.801 32.8101 144.722 32.9988 144.562 33.263C144.067 34.0681 143.325 34.7705 142.336 35.3702C141.874 36.3347 141.535 36.9888 141.317 37.3327C140.738 38.2384 140.193 38.6913 139.681 38.6913C139.413 38.6913 139.22 38.5865 139.102 38.3768C139.035 38.2552 139.002 38.1168 139.002 37.9617C139.002 37.3033 139.425 36.6722 140.272 36.0684C140.407 35.9677 140.95 35.6532 141.902 35.1249C142.086 34.7349 142.229 34.4288 142.329 34.2065C141.889 34.6678 141.524 34.8984 141.235 34.8984C141.054 34.8984 140.914 34.8062 140.813 34.6217C140.75 34.5001 140.719 34.3743 140.719 34.2443C140.719 33.9423 140.843 33.5545 141.09 33.0806C141.442 32.3971 141.866 31.8561 142.361 31.4578C142.776 31.1265 143.143 30.9609 143.461 30.9609C143.625 30.9609 143.766 31.0217 143.883 31.1433C143.963 31.2229 144.002 31.3404 144.002 31.4955C144.002 31.6884 143.937 31.9274 143.807 32.2126C143.904 32.3048 143.952 32.374 143.952 32.4201C143.952 32.4495 143.931 32.4914 143.889 32.5459C143.776 32.7011 143.594 32.9925 143.342 33.4203C143.12 33.7935 142.925 34.173 142.757 34.5588ZM142.713 33.1058C142.654 33.0429 142.625 32.9988 142.625 32.9737C142.625 32.9359 142.656 32.8877 142.719 32.829C142.929 32.6277 143.099 32.4181 143.229 32.2C143.334 32.0281 143.386 31.8939 143.386 31.7974C143.386 31.6842 143.334 31.6276 143.229 31.6276C143.048 31.6276 142.791 31.7995 142.455 32.1434C142.057 32.5501 141.746 33.0051 141.524 33.5083C141.415 33.7599 141.361 33.9528 141.361 34.087C141.361 34.1625 141.377 34.2191 141.411 34.2568C141.444 34.2946 141.493 34.3135 141.556 34.3135C141.702 34.3135 141.908 34.1625 142.172 33.8606C142.34 33.6677 142.482 33.479 142.6 33.2945C142.679 33.1729 142.717 33.11 142.713 33.1058ZM141.524 35.8545C140.971 36.0893 140.482 36.4458 140.059 36.9238C139.861 37.1461 139.721 37.3809 139.637 37.6283C139.612 37.7038 139.599 37.7667 139.599 37.817C139.599 37.8715 139.612 37.9197 139.637 37.9617C139.683 38.0372 139.748 38.0749 139.832 38.0749C140.092 38.0749 140.396 37.796 140.744 37.2383C141.046 36.7561 141.306 36.2948 141.524 35.8545ZM153.702 27.0107C153.983 27.0107 154.199 27.1113 154.35 27.3126C154.471 27.472 154.532 27.6649 154.532 27.8913C154.532 28.2981 154.396 28.7614 154.123 29.2814C153.884 29.7301 153.586 30.1327 153.23 30.4891C152.995 30.7197 152.811 30.8351 152.676 30.8351C152.588 30.8351 152.507 30.791 152.431 30.703C152.377 30.6401 152.349 30.5688 152.349 30.4891C152.349 30.3423 152.477 30.1746 152.733 29.9859C153.094 29.7175 153.381 29.424 153.595 29.1053C153.909 28.644 154.067 28.254 154.067 27.9353C154.067 27.8053 154.037 27.7089 153.978 27.646C153.924 27.5831 153.84 27.5516 153.727 27.5516C153.496 27.5516 153.169 27.7194 152.746 28.0549C152.263 28.4323 151.754 28.9459 151.217 29.5959C150.534 30.422 150.014 31.2355 149.657 32.0365C149.288 32.8667 149.104 33.5754 149.104 34.1625C149.104 34.4434 149.185 34.6825 149.349 34.8796C149.529 35.1018 149.749 35.2129 150.009 35.2129C150.462 35.2129 151.033 34.8607 151.72 34.1562C151.926 33.9423 152.175 33.632 152.469 33.2253C152.662 32.9653 152.785 32.7808 152.84 32.6717C152.903 32.5501 152.976 32.4893 153.06 32.4893C153.152 32.4893 153.198 32.5334 153.198 32.6214C153.198 32.8101 152.964 33.2337 152.494 33.892C152.104 34.4413 151.674 34.89 151.205 35.2381C150.676 35.6281 150.177 35.8231 149.708 35.8231C149.217 35.8231 148.837 35.6029 148.569 35.1626C148.397 34.8817 148.311 34.5609 148.311 34.2002C148.311 33.2945 148.739 32.1518 149.594 30.7722C150.324 29.598 151.093 28.6524 151.903 27.9353C152.603 27.3189 153.203 27.0107 153.702 27.0107ZM155.268 34.0619C155.13 34.3051 154.993 34.5105 154.859 34.6783C154.595 35.0054 154.333 35.1689 154.073 35.1689C153.846 35.1689 153.67 35.062 153.544 34.8481C153.465 34.7097 153.425 34.5462 153.425 34.3575C153.425 33.892 153.572 33.3783 153.865 32.8164C154.192 32.1916 154.586 31.7115 155.048 31.376C155.35 31.1579 155.641 31.0489 155.922 31.0489C156.098 31.0489 156.245 31.1034 156.362 31.2125C156.463 31.3089 156.513 31.4179 156.513 31.5395C156.513 31.6318 156.478 31.7597 156.406 31.9232C156.469 32.0113 156.501 32.0889 156.501 32.156C156.501 32.244 156.442 32.3887 156.325 32.59C156.203 32.7955 156.081 33.068 155.96 33.4077C155.83 33.7683 155.765 34.0577 155.765 34.2757C155.765 34.4518 155.817 34.5965 155.922 34.7097C155.951 34.7391 156.037 34.7873 156.18 34.8544C156.285 34.9047 156.337 34.9928 156.337 35.1186C156.337 35.1983 156.308 35.2632 156.249 35.3136C156.186 35.3681 156.113 35.3953 156.029 35.3953C155.803 35.3953 155.608 35.2947 155.444 35.0934C155.31 34.9299 155.243 34.7244 155.243 34.477C155.243 34.3931 155.251 34.2547 155.268 34.0619ZM156.054 31.9924C156.004 31.9002 155.949 31.8331 155.891 31.7911C155.832 31.745 155.769 31.722 155.702 31.722C155.383 31.722 155.037 32.0008 154.664 32.5585C154.253 33.175 154.048 33.697 154.048 34.1248C154.048 34.2296 154.067 34.3093 154.104 34.3638C154.146 34.4183 154.207 34.4455 154.287 34.4455C154.488 34.4455 154.723 34.2317 154.991 33.804C155.142 33.5691 155.329 33.2232 155.551 32.7661C155.698 32.4684 155.805 32.2713 155.872 32.1748C155.905 32.1245 155.966 32.0637 156.054 31.9924ZM157.897 33.0303C158.308 32.59 158.782 32.1602 159.319 31.7408C159.512 31.5899 159.717 31.4494 159.935 31.3194C160.044 31.2565 160.113 31.225 160.143 31.225C160.206 31.225 160.268 31.2712 160.331 31.3634C160.369 31.4137 160.388 31.4599 160.388 31.5018C160.388 31.5773 160.308 31.68 160.149 31.81C159.721 32.1497 159.507 32.4055 159.507 32.5774C159.507 32.6738 159.562 32.7221 159.671 32.7221C159.851 32.7221 160.162 32.5732 160.602 32.2755C160.677 32.2252 160.74 32.2 160.791 32.2C160.824 32.2 160.858 32.2168 160.891 32.2503C160.929 32.2881 160.948 32.3279 160.948 32.3698C160.948 32.4956 160.772 32.6885 160.419 32.9485C160.05 33.2253 159.7 33.3637 159.369 33.3637C159.235 33.3637 159.111 33.328 158.998 33.2567C158.901 33.198 158.853 33.0932 158.853 32.9422C158.853 32.8374 158.897 32.7179 158.985 32.5837C158.654 32.8185 158.264 33.2211 157.815 33.7914C157.555 34.1436 157.297 34.5776 157.042 35.0934C156.945 35.2863 156.826 35.3828 156.683 35.3828C156.528 35.3828 156.45 35.3094 156.45 35.1626C156.45 35.02 156.572 34.6384 156.815 34.0178C157.176 33.0953 157.553 32.3803 157.947 31.8729C158.191 31.5584 158.394 31.4012 158.558 31.4012C158.612 31.4012 158.662 31.4179 158.709 31.4515C158.763 31.4934 158.79 31.5458 158.79 31.6087C158.79 31.6716 158.748 31.7597 158.665 31.8729C158.648 31.8939 158.537 32.0344 158.331 32.2943C158.142 32.5418 157.998 32.7871 157.897 33.0303ZM161.181 33.892V34.0052C161.181 34.0975 161.204 34.1772 161.25 34.2443C161.355 34.3994 161.527 34.477 161.766 34.477C162.29 34.477 162.896 34.0744 163.583 33.2693C163.705 33.1309 163.808 33.0617 163.892 33.0617C163.938 33.0617 163.98 33.0848 164.017 33.1309C164.043 33.1645 164.055 33.1959 164.055 33.2253C164.055 33.3888 163.854 33.6656 163.451 34.0556C163.137 34.3617 162.801 34.6112 162.445 34.8041C162.088 34.997 161.757 35.0934 161.451 35.0934C161.137 35.0934 160.889 34.9844 160.709 34.7663C160.587 34.6154 160.526 34.4099 160.526 34.1499C160.526 33.4412 160.86 32.7472 161.527 32.0679C162.067 31.5144 162.539 31.2376 162.942 31.2376C163.051 31.2376 163.149 31.2712 163.237 31.3383C163.346 31.4263 163.401 31.5416 163.401 31.6842C163.401 31.9065 163.298 32.179 163.093 32.5019C162.669 33.1729 162.032 33.6362 161.181 33.892ZM161.319 33.4014C161.612 33.3008 161.843 33.1875 162.011 33.0617C162.304 32.8353 162.537 32.5795 162.709 32.2943C162.772 32.1937 162.803 32.1035 162.803 32.0239C162.803 31.94 162.764 31.8981 162.684 31.8981C162.575 31.8981 162.42 31.9798 162.218 32.1434C161.858 32.4327 161.558 32.8521 161.319 33.4014ZM164.716 33.892V34.0052C164.716 34.0975 164.739 34.1772 164.785 34.2443C164.89 34.3994 165.062 34.477 165.301 34.477C165.825 34.477 166.431 34.0744 167.118 33.2693C167.24 33.1309 167.343 33.0617 167.427 33.0617C167.473 33.0617 167.515 33.0848 167.552 33.1309C167.578 33.1645 167.59 33.1959 167.59 33.2253C167.59 33.3888 167.389 33.6656 166.986 34.0556C166.672 34.3617 166.336 34.6112 165.98 34.8041C165.623 34.997 165.292 35.0934 164.986 35.0934C164.672 35.0934 164.424 34.9844 164.244 34.7663C164.122 34.6154 164.061 34.4099 164.061 34.1499C164.061 33.4412 164.395 32.7472 165.062 32.0679C165.602 31.5144 166.074 31.2376 166.477 31.2376C166.586 31.2376 166.684 31.2712 166.772 31.3383C166.881 31.4263 166.936 31.5416 166.936 31.6842C166.936 31.9065 166.833 32.179 166.628 32.5019C166.204 33.1729 165.567 33.6362 164.716 33.892ZM164.854 33.4014C165.147 33.3008 165.378 33.1875 165.546 33.0617C165.839 32.8353 166.072 32.5795 166.244 32.2943C166.307 32.1937 166.338 32.1035 166.338 32.0239C166.338 31.94 166.299 31.8981 166.219 31.8981C166.11 31.8981 165.955 31.9798 165.753 32.1434C165.393 32.4327 165.093 32.8521 164.854 33.4014ZM168.905 33.0303C169.316 32.59 169.79 32.1602 170.326 31.7408C170.519 31.5899 170.725 31.4494 170.943 31.3194C171.052 31.2565 171.121 31.225 171.15 31.225C171.213 31.225 171.276 31.2712 171.339 31.3634C171.377 31.4137 171.396 31.4599 171.396 31.5018C171.396 31.5773 171.316 31.68 171.157 31.81C170.729 32.1497 170.515 32.4055 170.515 32.5774C170.515 32.6738 170.57 32.7221 170.679 32.7221C170.859 32.7221 171.169 32.5732 171.609 32.2755C171.685 32.2252 171.748 32.2 171.798 32.2C171.832 32.2 171.865 32.2168 171.899 32.2503C171.937 32.2881 171.955 32.3279 171.955 32.3698C171.955 32.4956 171.779 32.6885 171.427 32.9485C171.058 33.2253 170.708 33.3637 170.377 33.3637C170.242 33.3637 170.119 33.328 170.005 33.2567C169.909 33.198 169.861 33.0932 169.861 32.9422C169.861 32.8374 169.905 32.7179 169.993 32.5837C169.662 32.8185 169.272 33.2211 168.823 33.7914C168.563 34.1436 168.305 34.5776 168.049 35.0934C167.953 35.2863 167.833 35.3828 167.691 35.3828C167.536 35.3828 167.458 35.3094 167.458 35.1626C167.458 35.02 167.58 34.6384 167.823 34.0178C168.183 33.0953 168.561 32.3803 168.955 31.8729C169.198 31.5584 169.402 31.4012 169.565 31.4012C169.62 31.4012 169.67 31.4179 169.716 31.4515C169.771 31.4934 169.798 31.5458 169.798 31.6087C169.798 31.6716 169.756 31.7597 169.672 31.8729C169.655 31.8939 169.544 32.0344 169.339 32.2943C169.15 32.5418 169.005 32.7871 168.905 33.0303ZM176.239 32.6717C176.465 32.6717 176.579 32.764 176.579 32.9485C176.579 33.0869 176.474 33.1917 176.264 33.263C175.903 33.393 175.723 33.6257 175.723 33.9612C175.723 34.2296 175.828 34.4393 176.038 34.5902C176.218 34.716 176.447 34.7789 176.723 34.7789C177.277 34.7789 177.761 34.6175 178.176 34.2946C178.436 34.0891 178.566 33.8291 178.566 33.5146C178.566 33.3217 178.529 33.1477 178.453 32.9925C178.373 32.8332 178.252 32.6319 178.088 32.3887C177.837 32.0113 177.625 31.6674 177.453 31.3571C177.26 31.0133 177.164 30.6757 177.164 30.3444C177.164 29.5603 177.551 28.8264 178.327 28.1429C178.738 27.7865 179.191 27.4971 179.686 27.2749C180.097 27.0946 180.493 27.0044 180.875 27.0044C181.122 27.0044 181.332 27.0694 181.504 27.1994C181.713 27.3546 181.818 27.5663 181.818 27.8347C181.818 28.254 181.592 28.7069 181.139 29.1934C180.711 29.6504 180.212 30.0236 179.642 30.313C179.357 30.4556 179.141 30.5268 178.994 30.5268C178.898 30.5268 178.812 30.487 178.736 30.4073C178.686 30.3528 178.661 30.292 178.661 30.2249C178.661 30.0698 178.799 29.944 179.076 29.8475C179.583 29.6672 180.032 29.4135 180.422 29.0864C180.925 28.6671 181.177 28.3002 181.177 27.9857C181.177 27.8641 181.126 27.7655 181.026 27.69C180.946 27.6313 180.852 27.602 180.743 27.602C180.453 27.602 180.091 27.7131 179.654 27.9353C179.067 28.2331 178.606 28.6168 178.271 29.0864C177.977 29.4932 177.83 29.8895 177.83 30.2752C177.83 30.5562 177.908 30.8455 178.063 31.1433C178.193 31.3823 178.359 31.6528 178.56 31.9547C178.753 32.244 178.916 32.5124 179.051 32.7598C179.206 33.0533 179.283 33.328 179.283 33.5838C179.283 34.0786 179 34.5168 178.434 34.8984C177.952 35.2171 177.407 35.3765 176.799 35.3765C176.199 35.3765 175.729 35.2108 175.39 34.8796C175.134 34.628 175.006 34.3386 175.006 34.0115C175.006 33.6467 175.128 33.3406 175.371 33.0932C175.518 32.9422 175.692 32.829 175.893 32.7535C176.031 32.699 176.147 32.6717 176.239 32.6717ZM181.636 31.332C181.707 31.332 181.766 31.3592 181.812 31.4137C181.845 31.4599 181.862 31.506 181.862 31.5521C181.862 31.6276 181.801 31.7534 181.68 31.9295C181.244 32.6047 180.933 33.1603 180.749 33.5964C180.552 34.0451 180.378 34.5063 180.227 34.9802C180.16 35.1899 180.055 35.2947 179.912 35.2947C179.828 35.2947 179.761 35.2612 179.711 35.1941C179.665 35.1395 179.642 35.0808 179.642 35.0179C179.642 34.8921 179.776 34.4728 180.044 33.7599C180.254 33.198 180.594 32.5774 181.063 31.8981C181.214 31.6758 181.328 31.527 181.403 31.4515C181.479 31.3718 181.556 31.332 181.636 31.332ZM182.831 28.9984C183.02 28.9984 183.114 29.0948 183.114 29.2877C183.114 29.4638 183.022 29.6588 182.837 29.8727C182.661 30.0782 182.491 30.1809 182.328 30.1809C182.248 30.1809 182.183 30.1515 182.133 30.0928C182.082 30.0383 182.057 29.9712 182.057 29.8915C182.057 29.6903 182.168 29.4764 182.391 29.25C182.554 29.0822 182.701 28.9984 182.831 28.9984ZM182.85 32.9422C182.904 32.8919 182.957 32.8416 183.007 32.7913C183.883 31.9358 184.471 31.5081 184.768 31.5081C184.932 31.5081 185.014 31.5982 185.014 31.7786C185.014 31.9044 184.94 32.0532 184.793 32.2252C183.992 33.1603 183.592 33.9843 183.592 34.6971C183.592 34.9278 183.655 35.1479 183.781 35.3576C183.839 35.454 183.869 35.5295 183.869 35.584C183.869 35.6344 183.844 35.6826 183.793 35.7287C183.739 35.7874 183.674 35.8168 183.598 35.8168C183.426 35.8168 183.282 35.7077 183.164 35.4897C183.051 35.2842 182.994 35.0347 182.994 34.7412C182.994 34.1751 183.208 33.5482 183.636 32.8605C183.066 33.2253 182.535 33.8711 182.045 34.7978C181.919 35.02 181.785 35.1312 181.642 35.1312C181.571 35.1312 181.512 35.106 181.466 35.0557C181.407 34.997 181.378 34.9215 181.378 34.8292C181.378 34.6028 181.636 34.0094 182.152 33.0492C182.428 32.5292 182.646 32.1518 182.806 31.9169C182.965 31.6863 183.101 31.571 183.215 31.571C183.269 31.571 183.322 31.5962 183.372 31.6465C183.431 31.7052 183.46 31.7723 183.46 31.8478C183.46 31.94 183.399 32.0721 183.278 32.244C183.101 32.4998 182.959 32.7326 182.85 32.9422ZM187.284 31.1999C187.616 31.1999 187.781 31.3739 187.781 31.722C187.781 32.0281 187.662 32.3363 187.423 32.6466C187.238 32.8814 187.077 32.9988 186.938 32.9988C186.821 32.9988 186.762 32.9317 186.762 32.7976C186.762 32.7263 186.779 32.6697 186.813 32.6277C186.825 32.6109 186.875 32.5627 186.963 32.483C187.039 32.4118 187.117 32.3048 187.196 32.1623C187.251 32.0658 187.278 31.9882 187.278 31.9295C187.278 31.8624 187.24 31.8289 187.165 31.8289C187.077 31.8289 186.943 31.8981 186.762 32.0365C186.477 32.2587 186.192 32.6068 185.907 33.0806C185.613 33.5754 185.466 33.9654 185.466 34.2506C185.466 34.3428 185.494 34.4246 185.548 34.4959C185.628 34.6049 185.735 34.6594 185.869 34.6594C186.133 34.6594 186.446 34.4959 186.806 34.1688C187.112 33.8878 187.37 33.6069 187.58 33.3259C187.689 33.1708 187.783 33.0932 187.863 33.0932C187.909 33.0932 187.951 33.1141 187.989 33.1561C188.022 33.198 188.039 33.24 188.039 33.2819C188.039 33.437 187.84 33.739 187.442 34.1877C186.808 34.8921 186.234 35.2444 185.718 35.2444C185.408 35.2444 185.171 35.1333 185.007 34.911C184.89 34.7475 184.831 34.5546 184.831 34.3323C184.831 33.8962 185.011 33.3909 185.372 32.8164C185.72 32.2671 186.123 31.8247 186.58 31.4892C186.848 31.2963 187.083 31.1999 187.284 31.1999ZM189.02 33.892V34.0052C189.02 34.0975 189.043 34.1772 189.089 34.2443C189.194 34.3994 189.366 34.477 189.605 34.477C190.129 34.477 190.735 34.0744 191.423 33.2693C191.545 33.1309 191.647 33.0617 191.731 33.0617C191.777 33.0617 191.819 33.0848 191.857 33.1309C191.882 33.1645 191.895 33.1959 191.895 33.2253C191.895 33.3888 191.694 33.6656 191.291 34.0556C190.977 34.3617 190.641 34.6112 190.285 34.8041C189.928 34.997 189.597 35.0934 189.291 35.0934C188.976 35.0934 188.729 34.9844 188.549 34.7663C188.427 34.6154 188.366 34.4099 188.366 34.1499C188.366 33.4412 188.7 32.7472 189.366 32.0679C189.907 31.5144 190.379 31.2376 190.782 31.2376C190.891 31.2376 190.989 31.2712 191.077 31.3383C191.186 31.4263 191.241 31.5416 191.241 31.6842C191.241 31.9065 191.138 32.179 190.932 32.5019C190.509 33.1729 189.872 33.6362 189.02 33.892ZM189.159 33.4014C189.452 33.3008 189.683 33.1875 189.851 33.0617C190.144 32.8353 190.377 32.5795 190.549 32.2943C190.612 32.1937 190.643 32.1035 190.643 32.0239C190.643 31.94 190.603 31.8981 190.524 31.8981C190.415 31.8981 190.259 31.9798 190.058 32.1434C189.698 32.4327 189.398 32.8521 189.159 33.4014ZM195.719 34.6028C196.424 34.3805 197.072 34.2694 197.663 34.2694C197.893 34.2694 198.08 34.3176 198.223 34.4141C198.348 34.498 198.411 34.6007 198.411 34.7223C198.411 34.802 198.382 34.8733 198.323 34.9362C198.265 34.9991 198.197 35.0305 198.122 35.0305C198.097 35.0305 198.059 35.0242 198.009 35.0116C197.791 34.9529 197.594 34.9236 197.418 34.9236C197.262 34.9236 197.072 34.9383 196.845 34.9676C196.765 34.9802 196.474 35.0557 195.971 35.1941C195.518 35.3157 195.25 35.3765 195.166 35.3765C195.048 35.3765 194.946 35.3199 194.857 35.2066C194.778 35.1018 194.738 34.9928 194.738 34.8796C194.738 34.7538 194.847 34.5839 195.065 34.3701C195.476 33.9675 195.872 33.6048 196.254 33.2819C196.614 32.98 197.061 32.6319 197.594 32.2377C198.202 31.789 198.621 31.462 198.852 31.2565C199.196 30.9546 199.367 30.6526 199.367 30.3507C199.367 30.183 199.313 30.0509 199.204 29.9544C199.107 29.8706 198.986 29.8286 198.839 29.8286C198.462 29.8286 198.017 30.0404 197.506 30.4639C197.271 30.6568 197.124 30.7533 197.065 30.7533C197.023 30.7533 196.975 30.7281 196.921 30.6778C196.862 30.6275 196.833 30.5667 196.833 30.4954C196.833 30.3444 197.015 30.1306 197.38 29.8538C197.967 29.4093 198.527 29.1871 199.059 29.1871C199.365 29.1871 199.621 29.2856 199.827 29.4827C200.024 29.6714 200.122 29.8999 200.122 30.1683C200.122 30.638 199.883 31.1034 199.405 31.5647C199.2 31.766 198.822 32.0679 198.273 32.4705C196.952 33.4349 196.101 34.1457 195.719 34.6028ZM203.645 29.489C203.871 29.577 204.039 29.7196 204.148 29.9167C204.261 30.1096 204.318 30.357 204.318 30.6589C204.318 31.5941 203.953 32.5879 203.223 33.6404C202.431 34.7852 201.672 35.3576 200.946 35.3576C200.586 35.3576 200.315 35.171 200.135 34.7978C200.017 34.5546 199.959 34.261 199.959 33.9172C199.959 33.0869 200.263 32.2105 200.871 31.2879C201.185 30.8141 201.611 30.3256 202.148 29.8224C202.71 29.3024 203.114 29.0424 203.362 29.0424C203.55 29.0424 203.645 29.1913 203.645 29.489ZM202.827 29.9419C202.336 30.3444 201.902 30.8351 201.525 31.4137C200.984 32.244 200.714 33.0471 200.714 33.8228C200.714 34.0535 200.745 34.2338 200.808 34.3638C200.913 34.5651 201.057 34.6657 201.242 34.6657C201.531 34.6657 201.877 34.4434 202.28 33.9989C202.728 33.5041 203.081 32.9003 203.336 32.1874C203.534 31.6465 203.632 31.1894 203.632 30.8162C203.632 30.5562 203.552 30.3339 203.393 30.1494C203.284 30.0194 203.139 29.9503 202.959 29.9419C202.913 29.9419 202.869 29.9419 202.827 29.9419ZM207.532 30.0802C207.238 30.3025 206.945 30.4912 206.651 30.6464C206.253 30.8602 205.991 30.9671 205.865 30.9671C205.731 30.9671 205.664 30.8602 205.664 30.6464C205.664 30.5709 205.681 30.5059 205.714 30.4514C205.748 30.401 205.827 30.3528 205.953 30.3067C206.331 30.1473 206.88 29.8412 207.601 29.3883C207.928 29.1829 208.159 29.0801 208.293 29.0801C208.381 29.0801 208.461 29.1242 208.532 29.2122C208.578 29.2709 208.601 29.3338 208.601 29.4009C208.601 29.5058 208.519 29.684 208.356 29.9356C207.144 31.8981 206.305 33.4391 205.84 34.5588C205.727 34.8313 205.645 35.0012 205.595 35.0683C205.515 35.1815 205.435 35.2381 205.356 35.2381C205.276 35.2381 205.2 35.1899 205.129 35.0934C205.087 35.0389 205.066 34.9802 205.066 34.9173C205.066 34.6909 205.389 33.9444 206.035 32.678C206.639 31.4871 207.138 30.6212 207.532 30.0802ZM212.451 29.489C212.677 29.577 212.845 29.7196 212.954 29.9167C213.067 30.1096 213.124 30.357 213.124 30.6589C213.124 31.5941 212.759 32.5879 212.029 33.6404C211.237 34.7852 210.478 35.3576 209.752 35.3576C209.392 35.3576 209.121 35.171 208.941 34.7978C208.823 34.5546 208.765 34.261 208.765 33.9172C208.765 33.0869 209.069 32.2105 209.677 31.2879C209.991 30.8141 210.417 30.3256 210.954 29.8224C211.516 29.3024 211.92 29.0424 212.168 29.0424C212.356 29.0424 212.451 29.1913 212.451 29.489ZM211.633 29.9419C211.142 30.3444 210.708 30.8351 210.331 31.4137C209.79 32.244 209.52 33.0471 209.52 33.8228C209.52 34.0535 209.551 34.2338 209.614 34.3638C209.719 34.5651 209.863 34.6657 210.048 34.6657C210.337 34.6657 210.683 34.4434 211.086 33.9989C211.534 33.5041 211.887 32.9003 212.143 32.1874C212.34 31.6465 212.438 31.1894 212.438 30.8162C212.438 30.5562 212.358 30.3339 212.199 30.1494C212.09 30.0194 211.945 29.9503 211.765 29.9419C211.719 29.9419 211.675 29.9419 211.633 29.9419Z" fill="#2951BC"/>
</svg>
